# Blender v2.80 (sub 75) OBJ File: 'pepsi.blend'
# www.blender.org
mtllib pepsi.mtl
o Cylinder
v 0.000000 -0.149012 -1.000000
v 0.000000 2.949631 -1.000000
v 0.195090 -0.149012 -0.980785
v 0.195090 2.949631 -0.980785
v 0.382683 -0.149012 -0.923880
v 0.382683 2.949631 -0.923880
v 0.555616 -0.149072 -0.831536
v 0.555616 2.949690 -0.831536
v 0.707107 -0.149012 -0.707107
v 0.707107 2.949631 -0.707107
v 0.831470 -0.149012 -0.555570
v 0.831470 2.949631 -0.555570
v 0.923880 -0.149012 -0.382683
v 0.923880 2.949631 -0.382683
v 0.980785 -0.149012 -0.195090
v 0.980785 2.949631 -0.195090
v 1.000000 -0.149012 -0.000000
v 1.000000 2.949631 -0.000000
v 0.980785 -0.149012 0.195090
v 0.980785 2.949631 0.195090
v 0.923880 -0.149012 0.382683
v 0.923880 2.949631 0.382683
v 0.831470 -0.149012 0.555570
v 0.831470 2.949631 0.555570
v 0.707107 -0.149012 0.707107
v 0.707107 2.949631 0.707107
v 0.555616 -0.149072 0.831536
v 0.555616 2.949690 0.831536
v 0.382683 -0.149012 0.923880
v 0.382683 2.949631 0.923880
v 0.195090 -0.149012 0.980785
v 0.195090 2.949631 0.980785
v -0.000000 -0.149012 1.000000
v -0.000000 2.949631 1.000000
v -0.195091 -0.149012 0.980785
v -0.195091 2.949631 0.980785
v -0.382684 -0.149012 0.923879
v -0.382684 2.949631 0.923879
v -0.555617 -0.149072 0.831536
v -0.555617 2.949690 0.831536
v -0.707107 -0.149012 0.707106
v -0.707107 2.949631 0.707106
v -0.831470 -0.149012 0.555570
v -0.831470 2.949631 0.555570
v -0.923880 -0.149012 0.382683
v -0.923880 2.949631 0.382683
v -0.980785 -0.149012 0.195089
v -0.980785 2.949631 0.195089
v -1.000000 -0.149012 -0.000001
v -1.000000 2.949631 -0.000001
v -0.980785 -0.149012 -0.195091
v -0.980785 2.949631 -0.195091
v -0.923879 -0.149012 -0.382684
v -0.923879 2.949631 -0.382684
v -0.831469 -0.149012 -0.555571
v -0.831469 2.949631 -0.555571
v -0.707106 -0.149012 -0.707108
v -0.707106 2.949631 -0.707108
v -0.555615 -0.149072 -0.831537
v -0.555615 2.949690 -0.831537
v -0.382682 -0.149012 -0.923880
v -0.382682 2.949631 -0.923880
v -0.195089 -0.149012 -0.980786
v -0.195089 2.949631 -0.980786
v 0.000000 2.780692 -1.078943
v 0.211680 2.779685 -1.061227
v 0.410045 2.777816 -0.984464
v 0.594227 2.783659 -0.884719
v 0.760600 2.784340 -0.758815
v 0.880578 2.775604 -0.587027
v 0.965096 2.773739 -0.398692
v 1.010234 2.773295 -0.199897
v 1.013579 2.772585 -0.000000
v 1.010234 2.773295 0.199896
v 0.965096 2.773739 0.398692
v 0.880578 2.775604 0.587027
v 0.760600 2.784340 0.758815
v 0.594227 2.783659 0.884719
v 0.410045 2.777816 0.984464
v 0.211680 2.779685 1.061227
v -0.000000 2.780692 1.078942
v -0.211680 2.779685 1.061227
v -0.410046 2.777816 0.984464
v -0.594228 2.783659 0.884719
v -0.760600 2.784340 0.758814
v -0.880578 2.775604 0.587027
v -0.965096 2.773739 0.398692
v -1.010234 2.773295 0.199896
v -1.013579 2.772585 -0.000001
v -1.010234 2.773295 -0.199898
v -0.965095 2.773739 -0.398694
v -0.880577 2.775604 -0.587028
v -0.760599 2.784340 -0.758816
v -0.594226 2.783659 -0.884720
v -0.410044 2.777816 -0.984465
v -0.211678 2.779685 -1.061227
v 0.215809 0.065468 -1.080150
v 0.419545 0.069505 -1.005530
v 0.605067 0.068706 -0.901779
v 0.769115 0.066290 -0.767257
v 0.899954 0.071604 -0.599586
v 0.990097 0.073595 -0.408100
v 1.033793 0.075019 -0.203759
v 1.027168 0.076176 -0.000000
v 1.033793 0.075019 0.203759
v 0.990097 0.073595 0.408100
v 0.899954 0.071604 0.599586
v 0.769115 0.066290 0.767257
v 0.605067 0.068706 0.901779
v 0.419545 0.069505 1.005530
v 0.215809 0.065468 1.080150
v -0.000000 0.063372 1.094256
v -0.215810 0.065468 1.080150
v -0.419546 0.069505 1.005530
v -0.605068 0.068706 0.901778
v -0.769116 0.066290 0.767257
v -0.899954 0.071604 0.599585
v -0.990097 0.073594 0.408100
v -1.033793 0.075019 0.203758
v -1.027168 0.076176 -0.000001
v -1.033793 0.075019 -0.203760
v -0.990097 0.073595 -0.408101
v -0.899953 0.071604 -0.599587
v -0.769115 0.066291 -0.767258
v -0.605066 0.068706 -0.901779
v -0.419544 0.069505 -1.005531
v -0.215808 0.065468 -1.080151
v 0.000000 0.063372 -1.094256
vt 1.000000 0.971306
vt 1.000000 1.000000
vt 0.968750 1.000000
vt 0.968750 0.971306
vt 0.937500 1.000000
vt 0.937500 0.971306
vt 0.906250 1.000000
vt 0.906250 0.971306
vt 0.875000 1.000000
vt 0.875000 0.971306
vt 0.843750 1.000000
vt 0.843750 0.971307
vt 0.812500 1.000000
vt 0.812500 0.971306
vt 0.781250 1.000000
vt 0.781250 0.971307
vt 0.750000 1.000000
vt 0.750000 0.971306
vt 0.718750 1.000000
vt 0.718750 0.971306
vt 0.687500 1.000000
vt 0.687500 0.971306
vt 0.656250 1.000000
vt 0.656250 0.971307
vt 0.625000 1.000000
vt 0.625000 0.971306
vt 0.593750 1.000000
vt 0.593750 0.971306
vt 0.562500 1.000000
vt 0.562500 0.971306
vt 0.531250 1.000000
vt 0.531250 0.971306
vt 0.500000 1.000000
vt 0.500000 0.971306
vt 0.468750 1.000000
vt 0.468750 0.971306
vt 0.437500 1.000000
vt 0.437500 0.971307
vt 0.406250 1.000000
vt 0.406250 0.971306
vt 0.375000 1.000000
vt 0.375000 0.971306
vt 0.343750 1.000000
vt 0.343750 0.971306
vt 0.312500 1.000000
vt 0.312500 0.971306
vt 0.281250 1.000000
vt 0.281250 0.971307
vt 0.250000 1.000000
vt 0.250000 0.971306
vt 0.218750 1.000000
vt 0.218750 0.971306
vt 0.187500 1.000000
vt 0.187500 0.971306
vt 0.156250 1.000000
vt 0.156250 0.971306
vt 0.125000 1.000000
vt 0.125000 0.971306
vt 0.093750 1.000000
vt 0.093750 0.971306
vt 0.062500 1.000000
vt 0.062500 0.971307
vt 0.296822 0.485388
vt 0.250000 0.490000
vt 0.203179 0.485389
vt 0.158156 0.471731
vt 0.116663 0.449553
vt 0.080295 0.419706
vt 0.050447 0.383337
vt 0.028269 0.341844
vt 0.014612 0.296822
vt 0.010000 0.250000
vt 0.014611 0.203179
vt 0.028269 0.158156
vt 0.050447 0.116663
vt 0.080294 0.080294
vt 0.116663 0.050447
vt 0.158156 0.028269
vt 0.203178 0.014612
vt 0.250000 0.010000
vt 0.296822 0.014612
vt 0.341844 0.028269
vt 0.383337 0.050447
vt 0.419706 0.080294
vt 0.449553 0.116663
vt 0.471731 0.158156
vt 0.485388 0.203178
vt 0.490000 0.250000
vt 0.485388 0.296822
vt 0.471731 0.341844
vt 0.449553 0.383337
vt 0.419706 0.419706
vt 0.383337 0.449553
vt 0.341844 0.471731
vt 0.031250 1.000000
vt 0.031250 0.971307
vt 0.000000 1.000000
vt 0.000000 0.971306
vt 0.750000 0.490000
vt 0.796822 0.485388
vt 0.841844 0.471731
vt 0.883337 0.449553
vt 0.919706 0.419706
vt 0.949553 0.383337
vt 0.971731 0.341844
vt 0.985388 0.296822
vt 0.990000 0.250000
vt 0.985388 0.203178
vt 0.971731 0.158156
vt 0.949553 0.116663
vt 0.919706 0.080294
vt 0.883337 0.050447
vt 0.841844 0.028269
vt 0.796822 0.014612
vt 0.750000 0.010000
vt 0.703178 0.014612
vt 0.658156 0.028269
vt 0.616663 0.050447
vt 0.580294 0.080294
vt 0.550447 0.116663
vt 0.528269 0.158156
vt 0.514611 0.203179
vt 0.510000 0.250000
vt 0.514612 0.296822
vt 0.528269 0.341844
vt 0.550447 0.383337
vt 0.580295 0.419706
vt 0.616663 0.449553
vt 0.658156 0.471731
vt 0.703179 0.485389
vt 0.031250 0.536590
vt 0.000000 0.536590
vt 0.062500 0.536590
vt 0.093750 0.536590
vt 0.125000 0.536590
vt 0.156250 0.536590
vt 0.187500 0.536590
vt 0.218750 0.536590
vt 0.250000 0.536590
vt 0.281250 0.536590
vt 0.312500 0.536590
vt 0.343750 0.536590
vt 0.375000 0.536590
vt 0.406250 0.536590
vt 0.437500 0.536590
vt 0.468750 0.536590
vt 0.500000 0.536590
vt 0.531250 0.536590
vt 0.562500 0.536590
vt 0.593750 0.536590
vt 0.625000 0.536590
vt 0.656250 0.536590
vt 0.687500 0.536590
vt 0.718750 0.536590
vt 0.750000 0.536590
vt 0.781250 0.536590
vt 0.812500 0.536590
vt 0.843750 0.536590
vt 0.875000 0.536590
vt 0.906250 0.536590
vt 0.937500 0.536590
vt 0.968750 0.536590
vt 1.000000 0.536590
vt 1.000000 0.500000
vt 0.968750 0.500000
vt 0.937500 0.500000
vt 0.906250 0.500000
vt 0.875000 0.500000
vt 0.843750 0.500000
vt 0.812500 0.500000
vt 0.781250 0.500000
vt 0.750000 0.500000
vt 0.718750 0.500000
vt 0.687500 0.500000
vt 0.656250 0.500000
vt 0.625000 0.500000
vt 0.593750 0.500000
vt 0.562500 0.500000
vt 0.531250 0.500000
vt 0.500000 0.500000
vt 0.468750 0.500000
vt 0.437500 0.500000
vt 0.406250 0.500000
vt 0.375000 0.500000
vt 0.343750 0.500000
vt 0.312500 0.500000
vt 0.281250 0.500000
vt 0.250000 0.500000
vt 0.218750 0.500000
vt 0.187500 0.500000
vt 0.156250 0.500000
vt 0.125000 0.500000
vt 0.093750 0.500000
vt 0.062500 0.500000
vt 0.031250 0.500000
vt 0.000000 0.500000
vn 0.0828 0.4275 -0.9002
vn 0.3021 0.3966 -0.8669
vn 0.4368 0.3625 -0.8233
vn 0.5698 0.3878 -0.7245
vn 0.7482 0.3624 -0.5557
vn 0.8628 0.2798 -0.4211
vn 0.9464 0.2046 -0.2497
vn 0.9910 0.1214 -0.0564
vn 0.9910 0.1214 0.0564
vn 0.9464 0.2046 0.2497
vn 0.8628 0.2798 0.4211
vn 0.7482 0.3624 0.5557
vn 0.5698 0.3878 0.7245
vn 0.4368 0.3625 0.8233
vn 0.3021 0.3966 0.8669
vn 0.0828 0.4275 0.9002
vn -0.0828 0.4275 0.9002
vn -0.3021 0.3966 0.8669
vn -0.4368 0.3625 0.8233
vn -0.5698 0.3878 0.7245
vn -0.7482 0.3624 0.5557
vn -0.8628 0.2798 0.4211
vn -0.9464 0.2046 0.2497
vn -0.9910 0.1214 0.0564
vn -0.9910 0.1214 -0.0564
vn -0.9464 0.2046 -0.2497
vn -0.8628 0.2798 -0.4211
vn -0.7482 0.3624 -0.5557
vn -0.5698 0.3878 -0.7245
vn -0.4368 0.3625 -0.8233
vn -0.0000 1.0000 -0.0000
vn -0.3021 0.3966 -0.8669
vn -0.0828 0.4275 -0.9002
vn -0.0000 -1.0000 -0.0000
vn -0.0742 0.0063 -0.9972
vn -0.3523 0.0078 -0.9359
vn -0.4821 0.0080 -0.8761
vn -0.6190 0.0059 -0.7854
vn -0.8043 0.0064 -0.5942
vn -0.9085 0.0092 -0.4178
vn -0.9765 0.0093 -0.2152
vn -0.9999 0.0069 0.0081
vn -0.9999 0.0069 -0.0081
vn -0.9765 0.0093 0.2152
vn -0.9085 0.0092 0.4178
vn -0.8043 0.0064 0.5942
vn -0.6190 0.0059 0.7854
vn -0.4821 0.0080 0.8761
vn -0.3523 0.0078 0.9359
vn -0.0742 0.0063 0.9972
vn 0.0742 0.0063 0.9972
vn 0.3523 0.0078 0.9359
vn 0.4821 0.0080 0.8761
vn 0.6190 0.0059 0.7854
vn 0.8043 0.0064 0.5942
vn 0.9085 0.0092 0.4178
vn 0.9765 0.0093 0.2152
vn 0.9999 0.0069 -0.0081
vn 0.9999 0.0069 0.0081
vn 0.9765 0.0093 -0.2152
vn 0.9085 0.0092 -0.4178
vn 0.8043 0.0064 -0.5942
vn 0.6190 0.0059 -0.7854
vn 0.4821 0.0080 -0.8761
vn 0.3523 0.0078 -0.9359
vn 0.0742 0.0063 -0.9972
vn 0.0756 -0.4149 -0.9067
vn 0.2955 -0.4017 -0.8668
vn 0.4449 -0.3717 -0.8148
vn 0.5882 -0.3682 -0.7201
vn 0.7323 -0.3577 -0.5795
vn 0.8467 -0.3235 -0.4224
vn 0.9336 -0.2674 -0.2387
vn 0.9839 -0.1762 -0.0305
vn 0.9839 -0.1762 0.0305
vn 0.9336 -0.2674 0.2387
vn 0.8467 -0.3235 0.4224
vn 0.7323 -0.3577 0.5795
vn 0.5882 -0.3682 0.7201
vn 0.4449 -0.3717 0.8148
vn 0.2955 -0.4017 0.8668
vn 0.0756 -0.4149 0.9067
vn -0.0756 -0.4149 0.9067
vn -0.2955 -0.4017 0.8668
vn -0.4449 -0.3717 0.8148
vn -0.5882 -0.3682 0.7201
vn -0.7323 -0.3577 0.5795
vn -0.8467 -0.3235 0.4224
vn -0.9336 -0.2674 0.2387
vn -0.9839 -0.1762 0.0305
vn -0.9839 -0.1762 -0.0305
vn -0.9336 -0.2674 -0.2387
vn -0.8467 -0.3235 -0.4224
vn -0.7323 -0.3577 -0.5795
vn -0.5882 -0.3682 -0.7201
vn -0.4449 -0.3717 -0.8148
vn -0.2955 -0.4017 -0.8668
vn -0.0756 -0.4149 -0.9067
usemtl None
s off
f 65/1/1 2/2/1 4/3/1 66/4/1
f 66/4/2 4/3/2 6/5/2 67/6/2
f 67/6/3 6/5/3 8/7/3 68/8/3
f 68/8/4 8/7/4 10/9/4 69/10/4
f 69/10/5 10/9/5 12/11/5 70/12/5
f 70/12/6 12/11/6 14/13/6 71/14/6
f 71/14/7 14/13/7 16/15/7 72/16/7
f 72/16/8 16/15/8 18/17/8 73/18/8
f 73/18/9 18/17/9 20/19/9 74/20/9
f 74/20/10 20/19/10 22/21/10 75/22/10
f 75/22/11 22/21/11 24/23/11 76/24/11
f 76/24/12 24/23/12 26/25/12 77/26/12
f 77/26/13 26/25/13 28/27/13 78/28/13
f 78/28/14 28/27/14 30/29/14 79/30/14
f 79/30/15 30/29/15 32/31/15 80/32/15
f 80/32/16 32/31/16 34/33/16 81/34/16
f 81/34/17 34/33/17 36/35/17 82/36/17
f 82/36/18 36/35/18 38/37/18 83/38/18
f 83/38/19 38/37/19 40/39/19 84/40/19
f 84/40/20 40/39/20 42/41/20 85/42/20
f 85/42/21 42/41/21 44/43/21 86/44/21
f 86/44/22 44/43/22 46/45/22 87/46/22
f 87/46/23 46/45/23 48/47/23 88/48/23
f 88/48/24 48/47/24 50/49/24 89/50/24
f 89/50/25 50/49/25 52/51/25 90/52/25
f 90/52/26 52/51/26 54/53/26 91/54/26
f 91/54/27 54/53/27 56/55/27 92/56/27
f 92/56/28 56/55/28 58/57/28 93/58/28
f 93/58/29 58/57/29 60/59/29 94/60/29
f 94/60/30 60/59/30 62/61/30 95/62/30
f 4/63/31 2/64/31 64/65/31 62/66/31 60/67/31 58/68/31 56/69/31 54/70/31 52/71/31 50/72/31 48/73/31 46/74/31 44/75/31 42/76/31 40/77/31 38/78/31 36/79/31 34/80/31 32/81/31 30/82/31 28/83/31 26/84/31 24/85/31 22/86/31 20/87/31 18/88/31 16/89/31 14/90/31 12/91/31 10/92/31 8/93/31 6/94/31
f 95/62/32 62/61/32 64/95/32 96/96/32
f 96/96/33 64/95/33 2/97/33 65/98/33
f 1/99/34 3/100/34 5/101/34 7/102/34 9/103/34 11/104/34 13/105/34 15/106/34 17/107/34 19/108/34 21/109/34 23/110/34 25/111/34 27/112/34 29/113/34 31/114/34 33/115/34 35/116/34 37/117/34 39/118/34 41/119/34 43/120/34 45/121/34 47/122/34 49/123/34 51/124/34 53/125/34 55/126/34 57/127/34 59/128/34 61/129/34 63/130/34
f 127/131/35 96/96/35 65/98/35 128/132/35
f 126/133/36 95/62/36 96/96/36 127/131/36
f 125/134/37 94/60/37 95/62/37 126/133/37
f 124/135/38 93/58/38 94/60/38 125/134/38
f 123/136/39 92/56/39 93/58/39 124/135/39
f 122/137/40 91/54/40 92/56/40 123/136/40
f 121/138/41 90/52/41 91/54/41 122/137/41
f 120/139/42 89/50/42 90/52/42 121/138/42
f 119/140/43 88/48/43 89/50/43 120/139/43
f 118/141/44 87/46/44 88/48/44 119/140/44
f 117/142/45 86/44/45 87/46/45 118/141/45
f 116/143/46 85/42/46 86/44/46 117/142/46
f 115/144/47 84/40/47 85/42/47 116/143/47
f 114/145/48 83/38/48 84/40/48 115/144/48
f 113/146/49 82/36/49 83/38/49 114/145/49
f 112/147/50 81/34/50 82/36/50 113/146/50
f 111/148/51 80/32/51 81/34/51 112/147/51
f 110/149/52 79/30/52 80/32/52 111/148/52
f 109/150/53 78/28/53 79/30/53 110/149/53
f 108/151/54 77/26/54 78/28/54 109/150/54
f 107/152/55 76/24/55 77/26/55 108/151/55
f 106/153/56 75/22/56 76/24/56 107/152/56
f 105/154/57 74/20/57 75/22/57 106/153/57
f 104/155/58 73/18/58 74/20/58 105/154/58
f 103/156/59 72/16/59 73/18/59 104/155/59
f 102/157/60 71/14/60 72/16/60 103/156/60
f 101/158/61 70/12/61 71/14/61 102/157/61
f 100/159/62 69/10/62 70/12/62 101/158/62
f 99/160/63 68/8/63 69/10/63 100/159/63
f 98/161/64 67/6/64 68/8/64 99/160/64
f 97/162/65 66/4/65 67/6/65 98/161/65
f 128/163/66 65/1/66 66/4/66 97/162/66
f 1/164/67 128/163/67 97/162/67 3/165/67
f 3/165/68 97/162/68 98/161/68 5/166/68
f 5/166/69 98/161/69 99/160/69 7/167/69
f 7/167/70 99/160/70 100/159/70 9/168/70
f 9/168/71 100/159/71 101/158/71 11/169/71
f 11/169/72 101/158/72 102/157/72 13/170/72
f 13/170/73 102/157/73 103/156/73 15/171/73
f 15/171/74 103/156/74 104/155/74 17/172/74
f 17/172/75 104/155/75 105/154/75 19/173/75
f 19/173/76 105/154/76 106/153/76 21/174/76
f 21/174/77 106/153/77 107/152/77 23/175/77
f 23/175/78 107/152/78 108/151/78 25/176/78
f 25/176/79 108/151/79 109/150/79 27/177/79
f 27/177/80 109/150/80 110/149/80 29/178/80
f 29/178/81 110/149/81 111/148/81 31/179/81
f 31/179/82 111/148/82 112/147/82 33/180/82
f 33/180/83 112/147/83 113/146/83 35/181/83
f 35/181/84 113/146/84 114/145/84 37/182/84
f 37/182/85 114/145/85 115/144/85 39/183/85
f 39/183/86 115/144/86 116/143/86 41/184/86
f 41/184/87 116/143/87 117/142/87 43/185/87
f 43/185/88 117/142/88 118/141/88 45/186/88
f 45/186/89 118/141/89 119/140/89 47/187/89
f 47/187/90 119/140/90 120/139/90 49/188/90
f 49/188/91 120/139/91 121/138/91 51/189/91
f 51/189/92 121/138/92 122/137/92 53/190/92
f 53/190/93 122/137/93 123/136/93 55/191/93
f 55/191/94 123/136/94 124/135/94 57/192/94
f 57/192/95 124/135/95 125/134/95 59/193/95
f 59/193/96 125/134/96 126/133/96 61/194/96
f 61/194/97 126/133/97 127/131/97 63/195/97
f 63/195/98 127/131/98 128/132/98 1/196/98
